<?xml version="1.0" encoding="UTF-8" standalone="no"?>
<!DOCTYPE svg PUBLIC "-//W3C//DTD SVG 1.1//EN" "http://www.w3.org/Graphics/SVG/1.1/DTD/svg11.dtd">
<svg width="100%" height="100%" viewBox="0 0 2450 2450" version="1.1" xmlns="http://www.w3.org/2000/svg" xmlns:xlink="http://www.w3.org/1999/xlink" xml:space="preserve" xmlns:serif="http://www.serif.com/" style="fill-rule:evenodd;clip-rule:evenodd;stroke-linecap:round;stroke-linejoin:round;stroke-miterlimit:10;">
    <g transform="matrix(1,0,0,1,-19.923703,-3985.888582)">
        <g transform="matrix(1,0,0,1,-16294.169848,3864.874016)">
            <g transform="matrix(1.114143,0,0,1.114143,16131.374133,-111.841277)">
                <rect x="164" y="209" width="2199" height="2199" style="fill:none;"/>
            </g>
        </g>
        <g transform="matrix(1,0,0,1,-16294.169848,3864.874016)">
            <g transform="matrix(1.683735,-0.451155,0.451155,1.683735,16458.600273,721.814971)">
                <path d="M266.517,951.081C263.393,954.205 258.327,954.205 255.203,951.081L61.046,756.924C57.922,753.8 57.922,748.734 61.046,745.61L745.722,60.935C748.845,57.811 753.911,57.811 757.034,60.935L951.192,255.093C954.315,258.217 954.315,263.282 951.192,266.406L266.517,951.081Z" style="fill:rgb(196,196,196);fill-rule:nonzero;stroke:rgb(101,101,101);stroke-width:28.68px;"/>
            </g>
        </g>
        <g transform="matrix(1,0,0,1,-16294.169848,3864.874016)">
            <g transform="matrix(1.808943,-0.484705,0.451155,1.683735,16173.58876,-393.615863)">
                <path d="M118.542,980.813C59.577,980.628 11.927,932.678 12.111,873.714L12.436,770.134C12.574,725.822 48.608,690.012 92.921,690.151L757.976,692.234C802.288,692.373 838.099,728.407 837.96,772.719L837.552,902.829C837.413,947.142 801.378,982.951 757.065,982.812L118.542,980.813Z" style="fill:white;fill-rule:nonzero;stroke:rgb(101,101,101);stroke-width:27.64px;"/>
            </g>
        </g>
        <g transform="matrix(1,0,0,1,-16294.169848,3864.874016)">
            <g transform="matrix(-0.451148,-1.683737,-1.683737,0.451148,19751.84552,1670.814989)">
                <ellipse cx="837.759" cy="837.648" rx="145.309" ry="145.309" style="fill:rgb(196,196,196);stroke:rgb(101,101,101);stroke-width:28.68px;"/>
            </g>
        </g>
        <g transform="matrix(1,0,0,1,-16294.169848,3864.874016)">
            <g transform="matrix(1.753882,-0.469951,0.451155,1.683735,16709.703986,1877.213093)">
                <path d="M237.853,302.673C193.398,302.534 157.474,266.384 157.613,221.93L158.019,92.334C158.158,47.88 194.309,11.956 238.763,12.095L902.864,14.175C947.317,14.314 983.243,50.464 983.102,94.918L982.696,224.514C982.558,268.968 946.407,304.892 901.954,304.753L237.853,302.673Z" style="fill:white;fill-rule:nonzero;stroke:rgb(101,101,101);stroke-width:28.09px;"/>
            </g>
        </g>
        <g transform="matrix(1,0,0,1,-16294.169848,3864.874016)">
            <g transform="matrix(-0.451156,-1.683735,-1.683735,0.451156,17452.581843,2247.905746)">
                <ellipse cx="157.81" cy="157.81" rx="145.81" ry="145.81" style="fill:rgb(200,200,200);stroke:rgb(101,101,101);stroke-width:28.68px;"/>
            </g>
        </g>
    </g>
</svg>
